<svg width="202" height="127" viewBox="0 0 202 127" fill="none" xmlns="http://www.w3.org/2000/svg">
<g clip-path="url(#clip0_1_734)">
<path d="M38.9279 1.03215L187.445 47.991C198.001 51.3331 203.855 62.5967 200.523 73.1562L188.249 112.003C184.952 122.452 173.89 128.294 163.429 125.187L163.092 125.083L14.5719 78.1191C4.01564 74.777 -1.83779 63.5133 1.49413 52.9539L13.768 14.1071C17.0649 3.65851 28.1267 -2.18438 38.5879 0.923536L38.9252 1.0269C38.9265 1.02732 38.9278 1.02774 38.9279 1.03215Z" fill="#F6CF98"/>
<path d="M55.4259 41.1737L54.2528 44.7843L61.0288 46.986L59.8958 50.4729L53.1198 48.2713L50.9101 55.072L46.7307 53.7141L52.4197 36.2052L63.9439 39.9496L62.7707 43.5602L55.4259 41.1737Z" fill="#A54E34"/>
<path d="M61.5935 58.5433L67.2825 41.0344L71.536 42.4165L65.8471 59.9253L61.5935 58.5433Z" fill="#A54E34"/>
<path d="M80.6356 64.7304L78.8113 57.3025L73.1177 62.2877L68.0727 60.6485L77.211 53.3922L74.2563 43.3004L79.3507 44.9556L80.8473 51.4569L85.83 47.0609L90.7513 48.6599L82.5279 55.1198L85.8536 66.4259L80.6356 64.7304Z" fill="#A54E34"/>
<path d="M112.834 75.1924L108.655 73.8344L109.041 60.8638L108.967 60.8397L101.656 71.5604L97.452 70.1944L98.1703 51.0705L102.721 52.549L101.706 65.0968L101.78 65.1209L108.681 54.4855L113.083 55.9157L112.439 68.5841L112.513 68.6082L119.117 57.8763L123.519 59.3066L112.834 75.1924Z" fill="#A54E34"/>
<path d="M120.253 77.603L125.942 60.0941L130.196 61.4762L124.507 78.985L120.253 77.603Z" fill="#A54E34"/>
<path d="M137.431 67.8187L136.258 71.4293L143.034 73.631L141.901 77.1179L135.125 74.9163L132.915 81.717L128.735 80.3591L134.424 62.8502L145.949 66.5946L144.775 70.2052L137.431 67.8187Z" fill="#A54E34"/>
<path d="M143.598 85.1882L149.287 67.6794L153.541 69.0614L147.852 86.5703L143.598 85.1882Z" fill="#A54E34"/>
</g>
<defs>
<clipPath id="clip0_1_734">
<rect width="201.52" height="126.326" fill="white"/>
</clipPath>
</defs>
</svg>
