<svg width="22" height="33" viewBox="0 0 22 33" fill="none" xmlns="http://www.w3.org/2000/svg">
<g clip-path="url(#clip0_1_401)">
<path fill-rule="evenodd" clip-rule="evenodd" d="M15.134 3.5C16.424 3.5 17.589 4.052 18.407 4.935C19.4124 4.7339 20.3755 4.36075 21.254 3.832C20.9228 4.88085 20.2225 5.77404 19.283 6.346C20.1728 6.23906 21.0413 5.99799 21.859 5.631C21.2584 6.54156 20.5006 7.33798 19.621 7.983C19.629 8.178 19.634 8.373 19.634 8.571C19.634 14.576 15.124 21.5 6.874 21.5C4.342 21.5 1.984 20.748 0 19.458C1.17623 19.601 2.36916 19.5083 3.50919 19.1853C4.64922 18.8624 5.71352 18.3156 6.64 17.577C4.677 17.54 3.02 16.226 2.45 14.421C3.12197 14.5516 3.81507 14.5249 4.475 14.343C2.424 13.926 0.878 12.09 0.878 9.887V9.83C1.483 10.17 2.175 10.375 2.91 10.398C2.29354 9.97881 1.78931 9.41482 1.44149 8.75546C1.09368 8.09609 0.912898 7.36148 0.915 6.616C0.915 5.783 1.136 5.003 1.522 4.332C3.734 7.08 7.038 8.89 10.765 9.08C10.6875 8.74013 10.6486 8.3926 10.649 8.044C10.649 5.534 12.657 3.5 15.134 3.5Z" fill="#1C95E0"/>
</g>
<defs>
<clipPath id="clip0_1_401">
<rect width="22" height="18" fill="white" transform="translate(0 3.5)"/>
</clipPath>
</defs>
</svg>
